<svg width="108" height="108" viewBox="0 0 108 108" fill="none" xmlns="http://www.w3.org/2000/svg">
<rect x="1.56553" y="1.56553" width="104.369" height="104.369" rx="11.4806" stroke="#F6E8EA" stroke-width="3.13107"/>
<g clip-path="url(#clip0)">
<path d="M11.2314 37.5381C11.2327 43.6885 13.3664 49.6481 17.269 54.4017C21.1717 59.1552 26.6018 62.4085 32.6342 63.6074C32.9778 59.7995 33.955 56.0757 35.5255 52.5897C30.8697 51.0165 27.8774 47.445 27.1759 42.3746H24.5184V40.1105H26.9951V37.8039C26.9951 37.5594 26.9951 37.3096 27.0164 37.0864H24.5184V34.8169H27.2343C28.4302 28.184 33.6227 24.251 41.4249 24.251C43.1044 24.251 44.5607 24.4158 45.7778 24.7028V28.5986C44.3563 28.2823 42.9022 28.136 41.4462 28.1628C36.5618 28.1628 33.272 30.6395 32.2303 34.8169H42.4188V37.0864H31.8954C31.8795 37.3308 31.8795 37.6019 31.8795 37.8676V40.1105H42.4188V42.3799H32.1186C32.7458 45.5795 34.606 47.8542 37.4601 48.9119C40.2585 44.2771 44.1071 40.365 48.6955 37.4911C53.2838 34.6171 58.4834 32.8618 63.8748 32.3668C62.5713 25.912 58.9186 20.1707 53.6242 16.2549C48.3298 12.3392 41.7705 10.5278 35.217 11.1716C28.6634 11.8154 22.582 14.8685 18.1508 19.7396C13.7196 24.6107 11.2539 30.9531 11.2314 37.5381H11.2314ZM96.2687 66.7697C96.2687 74.5224 93.1889 81.9576 87.7069 87.4396C82.225 92.9215 74.7898 96.0013 67.0371 96.0013C59.2844 96.0013 51.8492 92.9215 46.3672 87.4396C40.8853 81.9576 37.8055 74.5224 37.8055 66.7697C37.8055 59.017 40.8853 51.5818 46.3672 46.0999C51.8492 40.6179 59.2844 37.5381 67.0371 37.5381C74.7898 37.5381 82.225 40.6179 87.7069 46.0999C93.1889 51.5818 96.2687 59.017 96.2687 66.7697V66.7697ZM55.0787 73.7959C55.4454 78.2338 59.0436 81.6884 65.517 82.0977V85.3716H68.3871V82.0764C75.0784 81.6193 78.9955 78.1434 78.9955 73.0944C78.9955 68.497 76.0032 66.1319 70.6512 64.9095L68.3871 64.378V55.4704C71.2571 55.7893 73.0854 57.3146 73.5212 59.4299H78.5596C78.1876 55.1568 74.4194 51.8138 68.3871 51.447V48.1678H65.517V51.5108C59.7983 52.0582 55.9078 55.4013 55.9078 60.1315C55.9078 64.3143 58.7991 66.977 63.6143 68.0665L65.517 68.5183V77.9787C62.5726 77.5535 60.6274 75.9803 60.1863 73.7959H55.0787ZM65.4958 63.7243C62.6683 63.0865 61.1376 61.7897 61.1376 59.8338C61.1376 57.6548 62.7905 56.0125 65.517 55.5341V63.719H65.4905L65.4958 63.7243ZM68.8016 69.273C72.2297 70.0436 73.8135 71.2926 73.8135 73.5036C73.8135 76.0228 71.847 77.7555 68.3924 78.0744V69.1773L68.8016 69.273Z" fill="#F6E8EA"/>
</g>
<defs>
<clipPath id="clip0">
<rect width="85.0373" height="85.0373" fill="white" transform="translate(11.2313 10.9639)"/>
</clipPath>
</defs>
</svg>
