<svg width="211" height="90" viewBox="0 0 211 90" fill="none" xmlns="http://www.w3.org/2000/svg">
<rect x="2.36708" y="1.51349" width="206.973" height="86.973" rx="11.0989" stroke="#F6E8EA" stroke-width="3.02699"/>
<g clip-path="url(#clip0)">
<path d="M11.8511 32.6649C11.8522 37.7277 13.5998 42.6335 16.7964 46.5464C19.9929 50.4594 24.4405 53.1374 29.3814 54.1243C29.6628 50.9897 30.4632 47.9244 31.7495 45.0549C27.9361 43.7599 25.4853 40.8199 24.9107 36.6462H22.7341V34.7824H24.7626V32.8837C24.7626 32.6824 24.7626 32.4768 24.7801 32.293H22.7341V30.4249H24.9585C25.938 24.9649 30.1911 21.7274 36.5815 21.7274C37.9571 21.7274 39.1499 21.863 40.1468 22.0993V25.3062C38.9825 25.0458 37.7915 24.9254 36.5989 24.9474C32.5984 24.9474 29.9037 26.9862 29.0505 30.4249H37.3956V32.293H28.7763C28.7632 32.4943 28.7632 32.7174 28.7632 32.9362V34.7824H37.3956V36.6505H28.9591C29.4728 39.2843 30.9964 41.1568 33.3341 42.0274C35.6262 38.2122 38.7784 34.9919 42.5366 32.6262C46.2947 30.2604 50.5535 28.8156 54.9694 28.408C53.9017 23.0947 50.9099 18.3686 46.5735 15.1453C42.2371 11.922 36.8646 10.4309 31.4968 10.9608C26.1291 11.4908 21.148 14.004 17.5186 18.0138C13.8891 22.0235 11.8696 27.2443 11.8511 32.6649H11.8511ZM81.502 56.7274C81.502 63.1092 78.9795 69.2296 74.4894 73.7422C69.9993 78.2548 63.9094 80.7899 57.5595 80.7899C51.2096 80.7899 45.1197 78.2548 40.6296 73.7422C36.1395 69.2296 33.617 63.1092 33.617 56.7274C33.617 50.3456 36.1395 44.2253 40.6296 39.7127C45.1197 35.2001 51.2096 32.6649 57.5595 32.6649C63.9094 32.6649 69.9993 35.2001 74.4894 39.7127C78.9795 44.2253 81.502 50.3456 81.502 56.7274V56.7274ZM47.7648 62.5112C48.0652 66.1643 51.0123 69.008 56.3145 69.3449V72.0399H58.6652V69.3274C64.1459 68.9512 67.3542 66.0899 67.3542 61.9337C67.3542 58.1493 64.9033 56.2024 60.5197 55.1962L58.6652 54.7587V47.4262C61.0159 47.6887 62.5134 48.9443 62.8704 50.6855H66.9972C66.6925 47.168 63.6061 44.4162 58.6652 44.1143V41.4149H56.3145V44.1668C51.6305 44.6174 48.4439 47.3693 48.4439 51.263C48.4439 54.7062 50.8121 56.898 54.7561 57.7949L56.3145 58.1668V65.9543C53.9028 65.6043 52.3096 64.3093 51.9483 62.5112H47.7648ZM56.2971 54.2205C53.9812 53.6955 52.7275 52.628 52.7275 51.018C52.7275 49.2243 54.0813 47.8724 56.3145 47.4787V54.2162H56.2927L56.2971 54.2205ZM59.0048 58.788C61.8126 59.4224 63.1098 60.4505 63.1098 62.2705C63.1098 64.3443 61.4991 65.7705 58.6696 66.033V58.7093L59.0048 58.788Z" fill="#F6E8EA"/>
</g>
<path d="M95.4949 35.042C92.5977 35.042 90.4248 34.4187 88.9761 33.1723C87.5444 31.9089 86.8285 29.9213 86.8285 27.2094C86.8285 25.6429 87.1233 24.2785 87.7128 23.1162C88.3024 21.9372 89.2372 21.0191 90.5174 20.3622C91.7976 19.7053 93.4567 19.3768 95.4949 19.3768C97.0951 19.3768 98.4258 19.461 99.487 19.6295C100.548 19.7979 101.264 19.9664 101.635 20.1348V20.6401L102.14 22.9141C101.668 22.5772 100.851 22.2403 99.6891 21.9035C98.5268 21.5666 97.1456 21.3981 95.5454 21.3981C94.0463 21.3981 92.8672 21.6508 92.0081 22.1561C91.1491 22.6446 90.5427 23.3268 90.1889 24.2027C89.8352 25.0786 89.6583 26.0808 89.6583 27.2094C89.6583 28.338 89.8352 29.3402 90.1889 30.2161C90.5595 31.0752 91.2164 31.7573 92.1597 32.2627C93.1198 32.7512 94.4926 32.9954 96.2781 32.9954C97.7267 32.9954 98.9311 32.827 99.8912 32.4901C100.868 32.1363 101.534 31.7995 101.887 31.4794V32.2374L102.14 33.7787C101.854 34.0482 101.155 34.3261 100.043 34.6124C98.9479 34.8988 97.432 35.042 95.4949 35.042ZM109.68 35.042C108.703 35.042 107.844 34.8735 107.102 34.5366C106.378 34.1829 105.814 33.5849 105.41 32.7427C105.022 31.8837 104.828 30.6962 104.828 29.1802V24.4806C104.828 23.9416 104.769 23.5542 104.652 23.3184C104.55 23.0826 104.441 22.9646 104.323 22.9646H107.936C107.818 22.9646 107.692 23.0826 107.557 23.3184C107.439 23.5542 107.38 23.9416 107.38 24.4806V29.5339C107.38 30.9657 107.633 31.9426 108.138 32.4648C108.644 32.987 109.309 33.2481 110.134 33.2481C110.96 33.2481 111.676 33.0459 112.282 32.6417C112.888 32.2374 113.36 31.6815 113.697 30.9741C114.051 30.2666 114.228 29.4665 114.228 28.5738V24.4806C114.228 23.9416 114.169 23.5626 114.051 23.3436C113.95 23.1078 113.84 22.9815 113.722 22.9646H116.805V33.2733C116.805 33.8123 116.855 34.1998 116.956 34.4356C117.074 34.6714 117.192 34.7893 117.31 34.7893H114.228V33.2733L114.278 32.768L114.228 32.7175C114.093 32.987 113.832 33.307 113.444 33.6776C113.074 34.0313 112.577 34.3514 111.954 34.6377C111.33 34.9072 110.572 35.042 109.68 35.042ZM119.473 34.7893C119.591 34.7893 119.7 34.6714 119.802 34.4356C119.919 34.1998 119.978 33.8123 119.978 33.2733V24.7333C119.978 24.1943 119.919 23.8153 119.802 23.5963C119.7 23.3605 119.591 23.2342 119.473 23.2173C120.214 23.2173 120.854 23.1668 121.393 23.0657C121.949 22.9478 122.337 22.8299 122.556 22.712V23.9753L122.505 24.4048L122.556 24.4554C122.943 23.9669 123.44 23.5542 124.046 23.2173C124.669 22.8804 125.436 22.712 126.345 22.712C127.137 22.712 127.819 22.8299 128.392 23.0657C128.982 23.2847 129.403 23.5121 129.655 23.7479L129.15 25.8703V26.6283C128.931 26.3588 128.611 26.0808 128.19 25.7945C127.786 25.4913 127.322 25.2386 126.8 25.0365C126.278 24.8344 125.722 24.7333 125.133 24.7333C124.459 24.7333 123.861 25.0028 123.339 25.5418C122.817 26.0808 122.556 26.9736 122.556 28.2201V33.2733C122.556 33.8123 122.606 34.1998 122.707 34.4356C122.825 34.6714 122.943 34.7893 123.061 34.7893H119.473ZM131.317 34.7893C131.435 34.7893 131.544 34.6714 131.645 34.4356C131.763 34.1998 131.822 33.8123 131.822 33.2733V24.7333C131.822 24.1943 131.763 23.8153 131.645 23.5963C131.544 23.3605 131.435 23.2342 131.317 23.2173C132.058 23.2173 132.698 23.1668 133.237 23.0657C133.793 22.9478 134.18 22.8299 134.399 22.712V23.9753L134.349 24.4048L134.399 24.4554C134.787 23.9669 135.283 23.5542 135.89 23.2173C136.513 22.8804 137.28 22.712 138.189 22.712C138.981 22.712 139.663 22.8299 140.236 23.0657C140.825 23.2847 141.246 23.5121 141.499 23.7479L140.994 25.8703V26.6283C140.775 26.3588 140.455 26.0808 140.034 25.7945C139.629 25.4913 139.166 25.2386 138.644 25.0365C138.122 24.8344 137.566 24.7333 136.976 24.7333C136.303 24.7333 135.705 25.0028 135.182 25.5418C134.66 26.0808 134.399 26.9736 134.399 28.2201V33.2733C134.399 33.8123 134.45 34.1998 134.551 34.4356C134.669 34.6714 134.787 34.7893 134.904 34.7893H131.317ZM148.737 35.042C147.407 35.042 146.312 34.8904 145.453 34.5872C144.594 34.2671 143.92 33.8292 143.431 33.2733C142.943 32.7175 142.597 32.069 142.395 31.3278C142.21 30.5867 142.117 29.7781 142.117 28.9022C142.117 26.9988 142.656 25.4913 143.734 24.3796C144.829 23.2678 146.446 22.712 148.586 22.712C149.832 22.712 150.834 22.8804 151.592 23.2173C152.367 23.5542 152.948 24.0006 153.336 24.5564C153.74 25.1123 154.009 25.7187 154.144 26.3756C154.296 27.0157 154.372 27.6473 154.372 28.2706V29.4581C154.372 29.4076 154.136 29.357 153.664 29.3065C153.209 29.2391 152.435 29.2054 151.34 29.2054H144.695C144.695 30.4519 145.065 31.4373 145.806 32.1616C146.547 32.8859 147.651 33.2481 149.116 33.2481C150.38 33.2481 151.415 33.0965 152.224 32.7933C153.049 32.4732 153.597 32.1616 153.866 31.8584V32.3637L154.119 34.0313C153.748 34.2503 153.091 34.4777 152.148 34.7135C151.222 34.9325 150.085 35.042 148.737 35.042ZM145.705 27.5379H151.845C151.845 27.0999 151.752 26.6451 151.567 26.1735C151.382 25.7018 151.053 25.306 150.582 24.986C150.11 24.6491 149.445 24.4806 148.586 24.4806C147.491 24.4806 146.615 24.7417 145.958 25.2639C145.318 25.7861 144.998 26.3756 144.998 27.0325C144.998 27.201 145.048 27.3273 145.149 27.4115C145.25 27.4958 145.436 27.5379 145.705 27.5379ZM156.534 34.7893C156.652 34.7893 156.761 34.6714 156.862 34.4356C156.98 34.1998 157.039 33.8123 157.039 33.2733V24.7333C157.039 24.1943 156.98 23.8153 156.862 23.5963C156.761 23.3605 156.652 23.2342 156.534 23.2173C157.275 23.2173 157.915 23.1668 158.454 23.0657C159.01 22.9478 159.397 22.8299 159.616 22.712V24.2532L159.566 24.5817L159.616 24.6322C159.987 24.1606 160.534 23.7226 161.258 23.3184C161.983 22.9141 162.943 22.712 164.139 22.712C165.705 22.712 166.901 23.1584 167.727 24.0511C168.569 24.9438 168.99 26.3419 168.99 28.2453V33.2733C168.99 33.8123 169.041 34.1998 169.142 34.4356C169.259 34.6714 169.377 34.7893 169.495 34.7893H165.907C166.025 34.7893 166.135 34.6714 166.236 34.4356C166.354 34.1998 166.413 33.8123 166.413 33.2733V28.3211C166.413 27.3273 166.286 26.5525 166.034 25.9966C165.781 25.4408 165.427 25.0533 164.973 24.8344C164.535 24.5985 164.021 24.4806 163.431 24.4806C162.808 24.4806 162.202 24.6154 161.612 24.8849C161.023 25.1544 160.543 25.5839 160.172 26.1735C159.801 26.763 159.616 27.5547 159.616 28.5485V33.2733C159.616 33.8123 159.667 34.1998 159.768 34.4356C159.886 34.6714 160.004 34.7893 160.121 34.7893H156.534ZM178.228 35.042C176.476 35.042 175.095 34.7725 174.085 34.2334C173.091 33.6944 172.392 32.9617 171.987 32.0353C171.583 31.1088 171.381 30.0645 171.381 28.9022C171.381 26.8472 171.937 25.306 173.049 24.2785C174.177 23.251 175.819 22.7373 177.976 22.7373C179.289 22.7373 180.393 22.8215 181.285 22.9899C182.178 23.1584 182.793 23.3184 183.13 23.47V23.9753L183.635 26.1735C183.298 25.8197 182.658 25.4576 181.715 25.087C180.772 24.6996 179.584 24.5059 178.152 24.5059C177.428 24.5059 176.737 24.6322 176.081 24.8849C175.44 25.1207 174.918 25.5587 174.514 26.1987C174.127 26.8388 173.933 27.7484 173.933 28.9275C173.933 30.0729 174.143 30.9657 174.565 31.6057C174.986 32.229 175.567 32.6585 176.308 32.8943C177.049 33.1301 177.891 33.2481 178.835 33.2481C180.031 33.2481 181.016 33.0628 181.791 32.6922C182.582 32.3216 183.113 31.9595 183.383 31.6057V32.1111L183.635 33.8292C183.315 34.0987 182.683 34.3682 181.74 34.6377C180.814 34.9072 179.643 35.042 178.228 35.042ZM185.949 40.9543C184.938 40.9543 184.138 40.8532 183.549 40.6511C182.959 40.449 182.58 40.2553 182.412 40.07L182.917 37.417V36.659C183.035 37.0127 183.228 37.3833 183.498 37.7707C183.751 38.175 184.079 38.5119 184.483 38.7814C184.888 39.0509 185.342 39.1857 185.848 39.1857C186.707 39.1857 187.381 38.933 187.869 38.4277C188.374 37.9223 188.846 37.2486 189.284 36.4064C189.621 35.7326 189.831 35.2694 189.916 35.0167C189.815 34.8819 189.655 34.5703 189.436 34.0818C189.217 33.5934 188.956 33.0038 188.652 32.3132C188.349 31.6057 188.029 30.8562 187.692 30.0645C187.372 29.2728 187.052 28.5064 186.732 27.7653C186.412 27.0241 186.126 26.3672 185.873 25.7945C185.62 25.2218 185.427 24.8091 185.292 24.5564C185.006 24.0174 184.744 23.6216 184.509 23.3689C184.273 23.1162 184.104 22.9815 184.003 22.9646H188.122C187.987 22.9646 187.894 23.091 187.844 23.3436C187.81 23.5795 187.903 23.9837 188.122 24.5564C188.256 24.8765 188.442 25.3397 188.678 25.9461C188.913 26.5356 189.175 27.2094 189.461 27.9674C189.747 28.7085 190.042 29.4665 190.345 30.2414C190.648 30.9994 190.926 31.7068 191.179 32.3637H191.204C191.474 31.6731 191.769 30.932 192.089 30.1403C192.409 29.3486 192.72 28.5738 193.023 27.8158C193.343 27.0578 193.621 26.384 193.857 25.7945C194.11 25.2049 194.295 24.7754 194.413 24.5059C194.649 23.9669 194.742 23.5795 194.691 23.3436C194.64 23.1078 194.548 22.9815 194.413 22.9646H198.38C198.279 22.9815 198.119 23.1078 197.9 23.3436C197.698 23.5626 197.462 23.9416 197.192 24.4806C197.041 24.767 196.805 25.2555 196.485 25.9461C196.182 26.6367 195.828 27.4284 195.424 28.3211C195.019 29.2139 194.607 30.1403 194.186 31.1004C193.765 32.0437 193.369 32.9364 192.998 33.7787C192.628 34.604 192.316 35.2862 192.063 35.8252C191.288 37.5265 190.429 38.8067 189.486 39.6657C188.543 40.5248 187.364 40.9543 185.949 40.9543ZM87.2328 66.7893C87.3507 66.7893 87.4602 66.6714 87.5612 66.4356C87.6791 66.1998 87.7381 65.8123 87.7381 65.2733V53.1455C87.7381 52.6065 87.6791 52.2275 87.5612 52.0085C87.4433 51.7727 87.3254 51.6463 87.2075 51.6295H95.4949C97.0277 51.6295 98.2321 51.84 99.108 52.2611C100.001 52.6654 100.632 53.2465 101.003 54.0045C101.374 54.7457 101.559 55.6132 101.559 56.607C101.559 57.6513 101.365 58.5609 100.978 59.3357C100.607 60.0937 99.9754 60.6833 99.0827 61.1044C98.2068 61.5086 97.0109 61.7108 95.4949 61.7108H90.5679V65.2733C90.5679 65.8123 90.6269 66.1998 90.7448 66.4356C90.8627 66.6714 90.9806 66.7893 91.0985 66.7893H87.2328ZM91.6038 59.7147H94.9643C96.0592 59.7147 96.8761 59.58 97.4151 59.3105C97.9541 59.041 98.3079 58.6704 98.4763 58.1987C98.6616 57.7271 98.7542 57.1965 98.7542 56.607C98.7542 55.9837 98.6447 55.4531 98.4258 55.0152C98.2068 54.5772 97.8194 54.2488 97.2635 54.0298C96.7245 53.794 95.9581 53.6761 94.9643 53.6761H91.6038C91.0817 53.6761 90.7785 53.7098 90.6943 53.7771C90.61 53.8277 90.5679 54.0214 90.5679 54.3583V59.0073C90.5679 59.3442 90.61 59.5463 90.6943 59.6137C90.7785 59.681 91.0817 59.7147 91.6038 59.7147ZM103.608 66.7893C103.725 66.7893 103.835 66.6714 103.936 66.4356C104.054 66.1998 104.113 65.8123 104.113 65.2733V56.7333C104.113 56.1943 104.054 55.8153 103.936 55.5963C103.835 55.3605 103.725 55.2342 103.608 55.2173C104.349 55.2173 104.989 55.1668 105.528 55.0657C106.084 54.9478 106.471 54.8299 106.69 54.712V55.9753L106.64 56.4048L106.69 56.4554C107.077 55.9669 107.574 55.5542 108.181 55.2173C108.804 54.8804 109.57 54.712 110.48 54.712C111.272 54.712 111.954 54.8299 112.527 55.0657C113.116 55.2847 113.537 55.5121 113.79 55.7479L113.285 57.8703V58.6283C113.066 58.3588 112.746 58.0808 112.324 57.7945C111.92 57.4913 111.457 57.2386 110.935 57.0365C110.413 56.8344 109.857 56.7333 109.267 56.7333C108.593 56.7333 107.995 57.0028 107.473 57.5418C106.951 58.0808 106.69 58.9736 106.69 60.2201V65.2733C106.69 65.8123 106.741 66.1998 106.842 66.4356C106.96 66.6714 107.077 66.7893 107.195 66.7893H103.608ZM119.512 67.042C117.676 67.042 116.388 66.7135 115.646 66.0566C114.905 65.3828 114.535 64.4816 114.535 63.3531C114.535 62.174 114.981 61.2476 115.874 60.5738C116.767 59.9 118.131 59.5631 119.967 59.5631C121.281 59.5631 122.334 59.6979 123.125 59.9674C123.917 60.2201 124.447 60.439 124.717 60.6243C124.7 59.1252 124.414 58.064 123.858 57.4408C123.319 56.8007 122.359 56.4806 120.978 56.4806C119.984 56.4806 119.091 56.5985 118.299 56.8344C117.525 57.0533 116.901 57.2976 116.43 57.5671C115.958 57.8197 115.663 58.005 115.545 58.1229V57.6176L115.293 55.7226C115.444 55.6553 115.773 55.5458 116.278 55.3942C116.783 55.2257 117.449 55.0741 118.274 54.9394C119.099 54.7878 120.068 54.712 121.18 54.712C123.302 54.712 124.852 55.1668 125.829 56.0764C126.806 56.9691 127.294 58.3503 127.294 60.2201V65.2733C127.294 65.745 127.345 66.0903 127.446 66.3092C127.564 66.5114 127.682 66.6714 127.799 66.7893H124.717V66.0313L124.768 65.5513L124.717 65.526C124.161 66.0313 123.437 66.4103 122.544 66.663C121.651 66.9156 120.641 67.042 119.512 67.042ZM120.346 65.2481C121.71 65.2481 122.78 65.0543 123.555 64.6669C124.33 64.2627 124.717 63.7573 124.717 63.151C124.717 62.6456 124.38 62.2161 123.706 61.8624C123.049 61.5086 122.022 61.3318 120.624 61.3318C119.327 61.3318 118.409 61.5002 117.87 61.8371C117.348 62.174 117.087 62.6793 117.087 63.3531C117.087 64.01 117.339 64.4901 117.845 64.7933C118.367 65.0965 119.201 65.2481 120.346 65.2481ZM136.553 67.042C134.802 67.042 133.42 66.7725 132.41 66.2334C131.416 65.6944 130.717 64.9617 130.313 64.0353C129.908 63.1088 129.706 62.0645 129.706 60.9022C129.706 58.8472 130.262 57.306 131.374 56.2785C132.502 55.251 134.145 54.7373 136.301 54.7373C137.615 54.7373 138.718 54.8215 139.611 54.9899C140.503 55.1584 141.118 55.3184 141.455 55.47V55.9753L141.96 58.1735C141.624 57.8197 140.984 57.4576 140.04 57.087C139.097 56.6996 137.909 56.5059 136.478 56.5059C135.753 56.5059 135.063 56.6322 134.406 56.8849C133.766 57.1207 133.244 57.5587 132.839 58.1987C132.452 58.8388 132.258 59.7484 132.258 60.9275C132.258 62.0729 132.469 62.9657 132.89 63.6057C133.311 64.229 133.892 64.6585 134.633 64.8943C135.374 65.1301 136.217 65.2481 137.16 65.2481C138.356 65.2481 139.341 65.0628 140.116 64.6922C140.908 64.3216 141.438 63.9595 141.708 63.6057V64.1111L141.96 65.8292C141.64 66.0987 141.009 66.3682 140.066 66.6377C139.139 66.9072 137.968 67.042 136.553 67.042ZM149.049 67.042C147.887 67.042 147.045 66.7977 146.523 66.3092C146.001 65.8039 145.74 64.987 145.74 63.8584V56.7333H143.466V54.9646C144.24 54.9646 144.847 54.872 145.285 54.6867C145.723 54.4846 146.034 54.1393 146.22 53.6508C146.405 53.1623 146.498 52.4801 146.498 51.6042H148.317V54.9646H153.143C153.025 55.1331 152.907 55.3858 152.789 55.7226C152.688 56.0427 152.637 56.3796 152.637 56.7333H148.317V63.4794C148.317 64.2542 148.46 64.7427 148.746 64.9449C149.033 65.147 149.395 65.2481 149.833 65.2481C150.456 65.2481 151.02 65.0628 151.526 64.6922C152.031 64.3216 152.393 63.9595 152.612 63.6057V64.389L152.865 65.8292C152.612 66.0987 152.157 66.3682 151.5 66.6377C150.843 66.9072 150.026 67.042 149.049 67.042ZM156.101 52.5391C155.612 52.5391 155.233 52.4043 154.964 52.1348C154.694 51.8485 154.56 51.52 154.56 51.1494C154.56 50.762 154.686 50.4335 154.939 50.164C155.208 49.8945 155.596 49.7598 156.101 49.7598C156.606 49.7598 156.985 49.8945 157.238 50.164C157.507 50.4335 157.642 50.762 157.642 51.1494C157.642 51.52 157.507 51.8485 157.238 52.1348C156.968 52.4043 156.589 52.5391 156.101 52.5391ZM154.56 66.7893C154.678 66.7893 154.787 66.6714 154.888 66.4356C155.006 66.1998 155.065 65.8123 155.065 65.2733V56.4806C155.065 55.9416 155.006 55.5626 154.888 55.3436C154.787 55.1078 154.678 54.9815 154.56 54.9646H157.642V65.2733C157.642 65.8123 157.693 66.1998 157.794 66.4356C157.912 66.6714 158.03 66.7893 158.148 66.7893H154.56ZM166.878 67.042C165.126 67.042 163.745 66.7725 162.734 66.2334C161.741 65.6944 161.042 64.9617 160.637 64.0353C160.233 63.1088 160.031 62.0645 160.031 60.9022C160.031 58.8472 160.587 57.306 161.698 56.2785C162.827 55.251 164.469 54.7373 166.625 54.7373C167.939 54.7373 169.043 54.8215 169.935 54.9899C170.828 55.1584 171.443 55.3184 171.78 55.47V55.9753L172.285 58.1735C171.948 57.8197 171.308 57.4576 170.365 57.087C169.422 56.6996 168.234 56.5059 166.802 56.5059C166.078 56.5059 165.387 56.6322 164.73 56.8849C164.09 57.1207 163.568 57.5587 163.164 58.1987C162.776 58.8388 162.583 59.7484 162.583 60.9275C162.583 62.0729 162.793 62.9657 163.214 63.6057C163.636 64.229 164.217 64.6585 164.958 64.8943C165.699 65.1301 166.541 65.2481 167.484 65.2481C168.68 65.2481 169.666 65.0628 170.441 64.6922C171.232 64.3216 171.763 63.9595 172.032 63.6057V64.1111L172.285 65.8292C171.965 66.0987 171.333 66.3682 170.39 66.6377C169.464 66.9072 168.293 67.042 166.878 67.042ZM180.789 67.042C179.458 67.042 178.363 66.8904 177.504 66.5872C176.645 66.2671 175.972 65.8292 175.483 65.2733C174.995 64.7175 174.649 64.069 174.447 63.3278C174.262 62.5867 174.169 61.7781 174.169 60.9022C174.169 58.9988 174.708 57.4913 175.786 56.3796C176.881 55.2678 178.498 54.712 180.637 54.712C181.884 54.712 182.886 54.8804 183.644 55.2173C184.419 55.5542 185 56.0006 185.387 56.5564C185.792 57.1123 186.061 57.7187 186.196 58.3756C186.348 59.0157 186.423 59.6473 186.423 60.2706V61.4581C186.423 61.4076 186.188 61.357 185.716 61.3065C185.261 61.2391 184.486 61.2054 183.391 61.2054H176.746C176.746 62.4519 177.117 63.4373 177.858 64.1616C178.599 64.8859 179.703 65.2481 181.168 65.2481C182.431 65.2481 183.467 65.0965 184.276 64.7933C185.101 64.4732 185.649 64.1616 185.918 63.8584V64.3637L186.171 66.0313C185.8 66.2503 185.143 66.4777 184.2 66.7135C183.274 66.9325 182.137 67.042 180.789 67.042ZM177.757 59.5379H183.897C183.897 59.0999 183.804 58.6451 183.619 58.1735C183.434 57.7018 183.105 57.306 182.633 56.986C182.162 56.6491 181.496 56.4806 180.637 56.4806C179.543 56.4806 178.667 56.7417 178.01 57.2639C177.37 57.7861 177.05 58.3756 177.05 59.0325C177.05 59.201 177.1 59.3273 177.201 59.4115C177.302 59.4958 177.488 59.5379 177.757 59.5379Z" fill="#F6E8EA"/>
<defs>
<clipPath id="clip0">
<rect width="69.6509" height="70" fill="white" transform="translate(11.8511 10.7893)"/>
</clipPath>
</defs>
</svg>
